<svg width="512" height="512" viewBox="0 0 512 512" fill="none" xmlns="http://www.w3.org/2000/svg">
  <defs>
    <linearGradient id="reachai-blue" x1="124" y1="92" x2="370" y2="370" gradientUnits="userSpaceOnUse">
      <stop offset="0" stop-color="#3AB8FF"/>
      <stop offset="0.48" stop-color="#2563EB"/>
      <stop offset="1" stop-color="#7C3AED"/>
    </linearGradient>
    <linearGradient id="reachai-cyan" x1="96" y1="228" x2="260" y2="354" gradientUnits="userSpaceOnUse">
      <stop offset="0" stop-color="#06B6D4"/>
      <stop offset="1" stop-color="#2563EB"/>
    </linearGradient>
    <linearGradient id="reachai-ring" x1="86" y1="333" x2="426" y2="410" gradientUnits="userSpaceOnUse">
      <stop offset="0" stop-color="#2563EB"/>
      <stop offset="0.54" stop-color="#3B82F6"/>
      <stop offset="1" stop-color="#7C3AED"/>
    </linearGradient>
  </defs>

  <rect x="16" y="16" width="480" height="480" rx="88" fill="#FFFFFF"/>
  <rect x="16" y="16" width="480" height="480" rx="88" stroke="#E2E8F0" stroke-width="8"/>

  <g stroke="url(#reachai-ring)" stroke-linecap="round" opacity="0.9">
    <ellipse cx="256" cy="356" rx="155" ry="33" stroke-width="14"/>
    <ellipse cx="256" cy="356" rx="112" ry="22" stroke-width="10" opacity="0.82"/>
    <ellipse cx="256" cy="356" rx="72" ry="12" stroke-width="7" opacity="0.72"/>
  </g>
  <path d="M165 123H303C363 123 408 164 408 219C408 273 365 313 308 313H283L382 394H296L180 296H306C338 296 362 274 362 244C362 214 338 192 306 192H165V123Z" fill="url(#reachai-blue)"/>
  <path d="M165 211H284C316 211 338 232 338 260C338 288 316 309 284 309H229L303 371H218L165 326V211Z" fill="#FFFFFF" fill-opacity="0.82"/>
  <path d="M188 235H284C300 235 312 246 312 260C312 274 300 285 284 285H220L338 384H284L188 303V235Z" fill="url(#reachai-blue)"/>

  <g fill="url(#reachai-blue)">
    <rect x="96" y="145" width="28" height="28" rx="4"/>
    <rect x="126" y="185" width="24" height="24" rx="4"/>
    <rect x="88" y="211" width="21" height="21" rx="4"/>
    <rect x="145" y="232" width="17" height="17" rx="3"/>
  </g>

  <g stroke="url(#reachai-cyan)" stroke-width="8" stroke-linecap="round">
    <path d="M114 312V260"/>
    <path d="M146 323V238"/>
    <path d="M180 320V266"/>
    <path d="M212 318V284"/>
  </g>
  <g fill="#06B6D4">
    <circle cx="114" cy="260" r="11"/>
    <circle cx="146" cy="238" r="12"/>
    <circle cx="180" cy="266" r="9"/>
    <circle cx="212" cy="284" r="8"/>
  </g>
</svg>
